<svg id="Layer_1" data-name="Layer 1" xmlns="http://www.w3.org/2000/svg" viewBox="0 0 274.26 54.19"><defs><style>.cls-1{fill:#fff;}.cls-2{fill:none;stroke:#fff;stroke-width:0.8px;}</style></defs><title>gtro</title><path class="cls-1" d="M24.65,29.49h-3.6l-.33-1.87c-1.47,1.66-4,2.23-6,2.23-6.48,0-10.68-4-10.68-8.92S8.27,12,14.75,12c4.44,0,9.18,1.89,9.69,6.19H18.86c-.18-1.46-2-2.35-4.23-2.35-3.6,0-5,2.54-5,5.09S11,26,14.63,26c2.76,0,4.62-1,4.92-2.59h-3.9V20.11h9Z" transform="translate(-4.07 -3.65)"/><path class="cls-1" d="M30.85,24.26c.09,1.7,1.32,2.83,3.48,2.83a3.2,3.2,0,0,0,2.91-1.37H42c-.93,2.88-4.26,4.13-7.74,4.13-5.07,0-8.52-2.45-8.52-6.62,0-3.82,3.81-6.55,8.4-6.55,5.58,0,8.37,3.36,8.13,7.58ZM37.18,22a2.86,2.86,0,0,0-3-2.54A3.13,3.13,0,0,0,30.85,22Z" transform="translate(-4.07 -3.65)"/><path class="cls-1" d="M51.27,16.68c4.83,0,8.22,2.85,8.22,6.6s-3.39,6.57-8.22,6.57S43.08,27,43.08,23.28,46.44,16.68,51.27,16.68Zm0,10.05c2.37,0,3.12-1.87,3.12-3.45s-.75-3.48-3.12-3.48-3.09,1.89-3.09,3.48S48.9,26.73,51.27,26.73Z" transform="translate(-4.07 -3.65)"/><path class="cls-1" d="M60.33,17h5v2.18h.06c.75-1.58,2.49-2.42,4.68-2.42a6.93,6.93,0,0,1,1.2.09v3.72a9,9,0,0,0-2-.24c-2.52,0-3.84,1.4-3.84,3v6.16h-5.1Z" transform="translate(-4.07 -3.65)"/><path class="cls-1" d="M87.49,28c0,2-.48,5.88-7.77,5.88-3.63,0-7-.65-7.65-4h5.1A1.36,1.36,0,0,0,78,31a5,5,0,0,0,1.86.26c2.43,0,2.67-1.37,2.67-2.9V27.14h-.06A5.32,5.32,0,0,1,78.37,29c-4.71,0-6.84-2.68-6.84-6.19,0-3.31,2.43-6.09,6.84-6.09a4.8,4.8,0,0,1,4.17,1.92h.06V17h4.89ZM79.6,19.8c-2.25,0-3,1.58-3,3.12a2.74,2.74,0,0,0,2.94,2.92,2.77,2.77,0,0,0,3.09-2.9A2.85,2.85,0,0,0,79.6,19.8Z" transform="translate(-4.07 -3.65)"/><path class="cls-1" d="M89.43,17h5.1V29.49h-5.1Zm5.1-1.56h-5.1V12.36h5.1Z" transform="translate(-4.07 -3.65)"/><path class="cls-1" d="M96,20.88a3.81,3.81,0,0,1,2.43-3.34,12.52,12.52,0,0,1,5-.86c3.69,0,7.26.65,7.26,4.17V26.3a5.92,5.92,0,0,0,.6,3.19h-5.13a4,4,0,0,1-.3-1.17,8.13,8.13,0,0,1-5.13,1.53c-3,0-5.31-1.2-5.31-3.77,0-4,5.52-3.74,9.06-4.31.87-.15,1.35-.39,1.35-1.16,0-.93-1.41-1.29-2.46-1.29-1.41,0-2.31.5-2.55,1.56Zm6.6,6.45c2.43,0,3.24-1.1,3.12-3.67a17.33,17.33,0,0,1-3.15.67c-1.14.22-2.1.6-2.1,1.58S101.49,27.33,102.63,27.33Z" transform="translate(-4.07 -3.65)"/><path class="cls-1" d="M65,36.44H58.56v13.3H53V36.44H46.59V32.6H65Z" transform="translate(-4.07 -3.65)"/><path class="cls-1" d="M65.55,44.51c.09,1.7,1.32,2.83,3.47,2.83A3.2,3.2,0,0,0,71.94,46H76.7c-.93,2.88-4.26,4.13-7.73,4.13-5.07,0-8.52-2.45-8.52-6.62,0-3.82,3.81-6.56,8.4-6.56,5.57,0,8.36,3.37,8.12,7.59Zm6.32-2.28a2.85,2.85,0,0,0-3-2.55,3.14,3.14,0,0,0-3.3,2.55Z" transform="translate(-4.07 -3.65)"/><path class="cls-1" d="M89,41.84c0-1.05-1.2-1.79-2.49-1.79-2.85,0-3.3,1.94-3.3,3.67a3,3,0,0,0,3,3.26c1.77,0,2.67-.82,2.9-2.13h5c-.46,3.33-3.69,5.25-7.83,5.25-4.68,0-8.16-2.57-8.16-6.38s3.15-6.8,8.16-6.8c3.87,0,7.31,1.64,7.67,4.92Z" transform="translate(-4.07 -3.65)"/><path class="cls-1" d="M95.14,32.6h5.1V39h.06c.78-1.27,2.88-2.07,4.74-2.07,5.19,0,5.61,3,5.61,4.83v8h-5.1v-6c0-1.71.24-3.43-2.55-3.43A2.54,2.54,0,0,0,100.24,43v6.79h-5.1Z" transform="translate(-4.07 -3.65)"/><path class="cls-1" d="M130.91,54.72a1.5,1.5,0,1,1-1.49,1.5A1.5,1.5,0,0,1,130.91,54.72Zm0,2.91a1.42,1.42,0,1,0-1.41-1.41A1.42,1.42,0,0,0,130.91,57.63Zm-.5-2.24H131c.39,0,.57.17.57.46a.44.44,0,0,1-.45.45l.53.8h-.1l-.52-.79h-.51v.79h-.08Zm.49.84c.23,0,.56,0,.56-.38s-.24-.38-.5-.38h-.47v.76Z" transform="translate(-4.07 -3.65)"/><path class="cls-1" d="M135.32,14.48h12c3.68,0,5,1.68,5,4.18A3.19,3.19,0,0,1,150,22.08v0a2.71,2.71,0,0,1,1.8,2.69c.23,3,.32,3.91,1,4.66h-5.48a6,6,0,0,1-.3-2.22c0-2.36-.77-2.78-2-2.78h-4.58v5h-5Zm5,6.64h4.81c1.22,0,1.87-.63,1.87-1.66s-.65-1.62-1.87-1.62h-4.81Z" transform="translate(-4.07 -3.65)"/><path class="cls-1" d="M168.39,26.09c-.55,1.89-2.71,3.84-7.56,3.84-5.13,0-8-1.95-8-6.17,0-4,3.13-6.13,7.85-6.13,4.87,0,7.9,2.12,7.9,6.87v.33H157.43c.23,1.47,1.28,2.54,3.56,2.54a3.11,3.11,0,0,0,2.69-1.28ZM164,22.52c-.25-1.26-1.2-2.33-3.3-2.33s-3,1.07-3.29,2.33Z" transform="translate(-4.07 -3.65)"/><path class="cls-1" d="M180.9,18.09h4.32V28.44c0,3.8-2.12,5.4-7.58,5.4-4.49,0-7.34-.76-7.81-3.91h4.92c.21,1,1.4,1.35,2.7,1.35,2.5,0,3.32-.88,3.32-3v-.8A6.6,6.6,0,0,1,176.22,29c-4.83,0-6.74-2.48-6.74-5.59s2.16-5.58,6.74-5.58c2,0,3.71.5,4.64,1.74h0Zm-3.45,8.06c2.52,0,3.32-1.21,3.32-2.66s-1-2.75-3.32-2.75-3.27,1.22-3.27,2.71S175.21,26.15,177.45,26.15Z" transform="translate(-4.07 -3.65)"/><path class="cls-1" d="M186.94,14.1h4.45v2.69h-4.45Zm0,4h4.45V29.47h-4.45Z" transform="translate(-4.07 -3.65)"/><path class="cls-1" d="M197.67,25.92a1.2,1.2,0,0,0,.62,1,4,4,0,0,0,2,.36c1,0,2-.19,2-1,0-.61-.45-.78-1.54-.9l-4-.49c-2.6-.31-3.92-1.24-3.92-3.17,0-3.08,2.64-4.05,6.91-4.05,3,0,6.84.55,7.09,3.78h-5a1.15,1.15,0,0,0-.8-1,4.24,4.24,0,0,0-1.6-.25c-1.28,0-2,.3-2,1.07,0,.36.3.67,1.43.8l3.85.42c3.06.34,4.57,1.28,4.57,3.51,0,2.68-2.56,3.94-7.28,3.94-3.15,0-7.42-.56-7.52-4Z" transform="translate(-4.07 -3.65)"/><path class="cls-1" d="M207.51,18.09h2.33V14.48h4.45v3.61h2.94V21h-2.94v4.58c0,1,.26,1.17,1.45,1.17.55,0,1,0,1.58,0v2.77a24.69,24.69,0,0,1-3.38.21c-2.9,0-4.1-.71-4.1-3.17V21h-2.33Z" transform="translate(-4.07 -3.65)"/><path class="cls-1" d="M218.91,18.09h4.39v2.25h0A5.34,5.34,0,0,1,228,17.8a9.24,9.24,0,0,1,1.51.12v4.16A8.18,8.18,0,0,0,227,21.7c-2.54,0-3.68,1.3-3.68,3.36v4.41h-4.45Z" transform="translate(-4.07 -3.65)"/><path class="cls-1" d="M230.33,21.66c.42-3.38,3.63-3.86,7.11-3.86,4.14,0,7.25.67,7.25,3.86v5.75a3.58,3.58,0,0,0,.46,2.06H240.7a3.11,3.11,0,0,1-.23-1c-1.28,1.22-3.11,1.51-5.36,1.51-3.63,0-5.56-1.17-5.56-3.54,0-2.59,1.72-3.51,4.91-3.72l4.43-.3c1.16-.08,1.35-.33,1.35-.92,0-.8-.86-1.22-2.82-1.22-1.63,0-2.43.47-2.64,1.43Zm10,2.5a10.85,10.85,0,0,1-1.7.31l-3,.36c-.9.11-1.28.46-1.28,1.16,0,.88.8,1.38,2,1.38,2.57,0,4-1,4-2.52Z" transform="translate(-4.07 -3.65)"/><path class="cls-1" d="M246.62,18.09H251v2.25h0a5.33,5.33,0,0,1,4.64-2.54,9.24,9.24,0,0,1,1.51.12v4.16a8.31,8.31,0,0,0-2.46-.38c-2.54,0-3.67,1.3-3.67,3.36v4.41h-4.45Z" transform="translate(-4.07 -3.65)"/><path class="cls-1" d="M258.77,14.48h4.71v2.67c0,3.25-1.5,5.31-4.71,5.6V21a2.44,2.44,0,0,0,2.08-2.39h-2.08Z" transform="translate(-4.07 -3.65)"/><path class="cls-1" d="M268.69,25.92a1.24,1.24,0,0,0,.63,1,4,4,0,0,0,2,.36c1,0,2-.19,2-1,0-.61-.44-.78-1.53-.9l-4-.49c-2.6-.31-3.92-1.24-3.92-3.17,0-3.08,2.64-4.05,6.9-4.05,3,0,6.85.55,7.1,3.78h-5a1.13,1.13,0,0,0-.79-1,4.24,4.24,0,0,0-1.6-.25c-1.28,0-2,.3-2,1.07,0,.36.3.67,1.43.8l3.84.42c3.07.34,4.58,1.28,4.58,3.51,0,2.68-2.56,3.94-7.28,3.94-3.15,0-7.42-.56-7.52-4Z" transform="translate(-4.07 -3.65)"/><path class="cls-1" d="M144.31,34.27c5.29,0,9.76,1.74,9.76,8s-4.47,8-9.76,8-9.76-1.74-9.76-8S139,34.27,144.31,34.27Zm0,12.55c2.69,0,4.47-1.44,4.47-4.59s-1.78-4.6-4.47-4.6-4.47,1.47-4.47,4.6S141.64,46.82,144.31,46.82Z" transform="translate(-4.07 -3.65)"/><path class="cls-1" d="M154.81,38.34h2.33v-1c0-2.1.72-3.28,4.79-3.28a20.16,20.16,0,0,1,2.6.17v2.52h-2c-.82,0-.95.19-.95.86v.69h2.94v2.94h-2.94v8.44h-4.45V41.28h-2.33Z" transform="translate(-4.07 -3.65)"/><path class="cls-1" d="M164.53,38.34h2.33v-1c0-2.1.72-3.28,4.79-3.28a20.31,20.31,0,0,1,2.61.17v2.52h-2c-.82,0-.94.19-.94.86v.69h2.94v2.94h-2.94v8.44h-4.46V41.28h-2.33Zm11-4H180V37h-4.45Zm0,4H180V49.72h-4.45Z" transform="translate(-4.07 -3.65)"/><path class="cls-1" d="M197.05,45.08c-.67,3.26-2.87,5.1-7.87,5.1s-8-2-8-6.15,3.09-6.15,8-6.15c4.24,0,7.26,1.28,7.66,4.89h-4.57c-.21-1.24-1.14-2-3-2A3,3,0,0,0,185.9,44c0,2.06,1.22,3.21,3.36,3.21,1.68,0,2.8-.71,3.09-2.16Z" transform="translate(-4.07 -3.65)"/><path class="cls-1" d="M213.47,46.34c-.54,1.89-2.71,3.84-7.56,3.84-5.12,0-8-2-8-6.17,0-4,3.12-6.13,7.85-6.13s7.89,2.12,7.89,6.87v.33H202.51c.23,1.47,1.28,2.54,3.57,2.54a3.12,3.12,0,0,0,2.69-1.28Zm-4.37-3.57c-.25-1.26-1.19-2.33-3.29-2.33s-3.05,1.07-3.3,2.33Z" transform="translate(-4.07 -3.65)"/><polygon class="cls-2" points="113.4 29.95 118.68 49.75 113.4 49.75 113.4 29.95 113.4 29.95"/><polygon class="cls-2" points="123.96 29.95 118.68 49.75 123.96 49.75 123.96 29.95 123.96 29.95"/><polyline class="cls-2" points="121.32 39.64 118.68 0.03 116.04 39.64"/><rect class="cls-2" x="113.4" y="51.78" width="10.56" height="2.02"/></svg>