<svg id="Layer_1" data-name="Layer 1" xmlns="http://www.w3.org/2000/svg" viewBox="0 0 248 155.49"><defs><style>.cls-1{fill:#0f6;}</style></defs><title>gt_gt_logo_green</title><path d="M99.07,50.64V91h22.52l2.2-11.5h7c-4.16,17.46-23.41,29-46,27.24C63.34,105.13,40.33,93,40.42,70.3c.08-25,22.51-39.48,43.48-40.38,14-.57,29.77,4.81,41.11,14.19.65.57.82.66.9.74s.16.08.73.57l.66.49h25V1.12h-26V13.6C115.71,7.4,98.91,1.45,79.57,1.53a84.19,84.19,0,0,0-59.14,24.8C7.78,39.22,1,54.88,1.18,70.63,1.34,86,8.36,100.81,20.76,112.15c15.82,14.44,39,21.94,61.83,20.07,17.79-1.47,33.61-5.39,45.2-11.18v4.41h27.57V79.6H162v51H148.75v26h61.1v-26H196.64V79.52h27.9l2,11.5h22.59V50.64Z" transform="translate(-1.17 -1.12)"/><path class="cls-1" d="M103.48,86.61h14.35L120,75.11h16l-.41,2.53c-3.18,21.13-25.21,35.57-51.23,33.61C61,109.46,35.85,95.83,35.93,70.38,36,46,56.57,26.74,83.65,25.59c15.09-.65,32,5.14,44.14,15.18.49.41.49.41.57.49a3.13,3.13,0,0,1,.4.32h19v-36H130.64V21.19L127,19.31c-9.38-6.52-26.59-13.38-47-13.38h-.33a79.46,79.46,0,0,0-56,23.5C11.86,41.42,5.42,56,5.66,70.54c.17,14.2,6.61,27.82,18.11,38.26,14.93,13.63,36.8,20.72,58.5,18.93,18.92-1.55,35.48-6,46.74-12.4l3.34-2-.08,7.59h18.6V75.11h15.5V135H153.16v17.13h52.21V135H192.15V75.11h36.06l2,11.5h14.44V55H103.48V86.61Z" transform="translate(-1.17 -1.12)"/></svg>